<svg width="32" height="32" viewBox="0 0 32 32" fill="none" xmlns="http://www.w3.org/2000/svg">
<rect x="12.0071" y="11.8134" width="16.8907" height="11.9596" rx="2.6924" stroke="white" stroke-width="1.19"/>
<path d="M17.001 12.0404V9.71986C17.001 7.37029 18.8408 5.46558 21.1102 5.46558C23.3797 5.46558 25.2195 7.37029 25.2195 9.71986V12.0404" stroke="white" stroke-width="1.19"/>
<path d="M14.5352 12.0404V9.38143C14.5352 5.85706 17.4788 3 21.11 3C24.7411 3 27.6848 5.85706 27.6848 9.38143V12.0404" stroke="white" stroke-width="1.19"/>
<path d="M27.438 23.5463C29.2536 23.5463 30.7254 22.1431 30.7254 20.4486V15.0791C30.7254 13.3846 29.2536 12.0404 27.438 12.0404" stroke="white" stroke-width="1.19"/>
<path d="M1.13897 21.0808C0.865023 19.985 0.810233 17.3825 2.78268 15.7388" stroke="white" stroke-width="1.19" stroke-linecap="round"/>
<path d="M6.54032 17.7327C7.41447 17.0174 9.67182 15.9175 12 17" stroke="white" stroke-width="1.19" stroke-linecap="round"/>
<path d="M8.60989 24.0736C8.49581 25.1973 7.71399 26.8337 5.65936 28.0665" stroke="white" stroke-width="1.19" stroke-linecap="round"/>
<path d="M11.8233 26.9761C11.823 28.0666 11.0012 28.8883 10.5904 29.0304" stroke="white" stroke-width="1.19" stroke-linecap="round"/>
<path d="M13.4751 23.4527L13.4751 22.8577L12.2851 22.8577L12.2851 23.4527L12.8801 23.4527L13.4751 23.4527ZM11.99 25.1934C11.8207 25.4751 11.9119 25.8406 12.1935 26.0099C12.4752 26.1791 12.8408 26.088 13.01 25.8063L12.5 25.4999L11.99 25.1934ZM12.8801 23.4527L12.2851 23.4527C12.2851 24.3849 12.1667 24.8994 11.99 25.1934L12.5 25.4999L13.01 25.8063C13.361 25.2222 13.4751 24.4316 13.4751 23.4527L12.8801 23.4527Z" fill="white"/>
<path d="M14.6217 23.957C14.6216 24.6364 14.4999 26.5 13.7998 28.0664" stroke="white" stroke-width="1.19" stroke-linecap="round"/>
<path d="M16.343 24.3682C16.343 25.0477 16.343 26.0119 15.9321 26.8338" stroke="white" stroke-width="1.19" stroke-linecap="round"/>
<path d="M4.83732 13.6841C5.64287 12.8923 9.74663 12.0435 12.1635 12.9101" stroke="white" stroke-width="1.19" stroke-linecap="round"/>
<path d="M3.19342 20.2592C3.19343 19.026 4.83716 13.273 11.3788 14.7718" stroke="white" stroke-width="1.19" stroke-linecap="round"/>
<path d="M8.66514 22.3275C8.52816 21.3686 8.44742 20.2728 9.48699 20.2728C10.3088 20.2728 10.5903 21.9025 10.5903 23.1353C10.5903 24.6667 9.35757 28.3075 7.71387 29.2937" stroke="white" stroke-width="1.19" stroke-linecap="round"/>
<path d="M11.8232 19.8478C11.0014 18.2042 8.7281 18.0118 7.71395 19.0259C7.35274 19.3871 6.8921 19.8218 6.8921 23.1348C6.8921 25.6009 4.97445 26.6962 4.01562 26.8331" stroke="white" stroke-width="1.19" stroke-linecap="round"/>
<path d="M2.78271 25.6008C3.46759 25.4638 4.83734 24.6968 4.83734 22.7243C4.83734 20.7519 5.11129 19.4369 5.24827 19.026" stroke="white" stroke-width="1.19" stroke-linecap="round"/>
<path d="M1.96094 24.368C2.50884 24.0941 3.52245 23.2174 3.19371 21.9025" stroke="white" stroke-width="1.19" stroke-linecap="round"/>
<path d="M18.6062 17.0246L18.1778 18.4969C18.118 18.7046 18.0882 18.8514 18.0882 18.937C18.0882 19.0565 18.1271 19.1474 18.205 19.2097C18.2829 19.2694 18.4595 19.3019 18.7347 19.3071L18.6841 19.4512H16.1057L16.1485 19.3071C16.3666 19.3045 16.5211 19.2837 16.612 19.2447C16.7029 19.2032 16.7782 19.137 16.8379 19.0461C16.8821 18.9864 16.9483 18.8033 17.0366 18.4969L18.0142 15.1434C18.0817 14.9201 18.1154 14.7604 18.1154 14.6643C18.1154 14.5682 18.0726 14.4877 17.9869 14.4228C17.9012 14.3553 17.7454 14.319 17.5195 14.3138L17.5624 14.1697H19.6539C20.2278 14.1697 20.6407 14.2424 20.8925 14.3878C21.282 14.6163 21.4768 14.959 21.4768 15.416C21.4768 15.8575 21.282 16.247 20.8925 16.5845C20.5056 16.9195 19.9837 17.087 19.3268 17.087C19.1294 17.087 18.8892 17.0662 18.6062 17.0246ZM18.6841 16.7247C18.8529 16.7455 18.9931 16.7559 19.1048 16.7559C19.4631 16.7559 19.7448 16.5923 19.95 16.2651C20.1551 15.938 20.2577 15.5965 20.2577 15.2408C20.2577 14.9993 20.1914 14.8123 20.059 14.6799C19.9266 14.5449 19.7435 14.4774 19.5098 14.4774C19.4605 14.4774 19.3995 14.48 19.3268 14.4852L18.6841 16.7247ZM21.4581 17.6965V17.627C21.4581 17.3643 21.4956 17.1227 21.5706 16.9019C21.6457 16.679 21.7549 16.4859 21.8984 16.3226C22.0418 16.1593 22.2173 16.0323 22.4248 15.9419C22.6323 15.8492 22.8684 15.8028 23.1333 15.8028C23.4025 15.8028 23.6409 15.8492 23.8484 15.9419C24.0581 16.0323 24.2346 16.1593 24.3781 16.3226C24.5215 16.4859 24.6308 16.679 24.7058 16.9019C24.7809 17.1227 24.8184 17.3643 24.8184 17.627V17.6965C24.8184 17.957 24.7809 18.1986 24.7058 18.4216C24.6308 18.6423 24.5215 18.8354 24.3781 19.0009C24.2346 19.1642 24.0592 19.2912 23.8517 19.3816C23.6442 19.4721 23.407 19.5174 23.1399 19.5174C22.875 19.5174 22.6378 19.4721 22.4281 19.3816C22.2184 19.2912 22.0418 19.1642 21.8984 19.0009C21.7549 18.8354 21.6457 18.6423 21.5706 18.4216C21.4956 18.1986 21.4581 17.957 21.4581 17.6965ZM22.3321 17.627V17.6965C22.3321 17.8532 22.3475 18 22.3784 18.1368C22.4093 18.2737 22.4568 18.394 22.5208 18.4977C22.5848 18.6014 22.6676 18.6831 22.7691 18.7427C22.8728 18.8001 22.9964 18.8288 23.1399 18.8288C23.2811 18.8288 23.4025 18.8001 23.5041 18.7427C23.6056 18.6831 23.6884 18.6014 23.7524 18.4977C23.8186 18.394 23.8671 18.2737 23.898 18.1368C23.9289 18 23.9444 17.8532 23.9444 17.6965V17.627C23.9444 17.4725 23.9289 17.3279 23.898 17.1933C23.8671 17.0564 23.8186 16.9362 23.7524 16.8324C23.6884 16.7265 23.6045 16.6437 23.5008 16.5841C23.3992 16.5223 23.2767 16.4914 23.1333 16.4914C22.992 16.4914 22.8706 16.5223 22.7691 16.5841C22.6676 16.6437 22.5848 16.7265 22.5208 16.8324C22.4568 16.9362 22.4093 17.0564 22.3784 17.1933C22.3475 17.3279 22.3321 17.4725 22.3321 17.627Z" fill="white"/>
</svg>
