<svg width="46" height="46" viewBox="0 0 46 46" fill="none" xmlns="http://www.w3.org/2000/svg">
<rect x="3.30535" y="19.1071" width="8.88897" height="5.2496" rx="2.6248" stroke="white" stroke-width="1.50914"/>
<rect x="14.7433" y="19.1071" width="8.88897" height="5.2496" rx="2.6248" stroke="white" stroke-width="1.50914"/>
<path d="M32.1851 16.5076C35.5011 16.5076 38.189 19.1955 38.189 22.5115C38.1889 25.8275 35.5011 28.5154 32.1851 28.5154C28.869 28.5154 26.1812 25.8275 26.1812 22.5115C26.1812 19.1955 28.869 16.5076 32.1851 16.5076Z" stroke="white" stroke-width="1.50914"/>
<path d="M42.0702 31.8992C42.5468 32.4043 42.5241 33.1999 42.0193 33.6766L41.738 33.942C41.2328 34.4187 40.4366 34.3955 39.9599 33.8903L34.9094 28.5375L37.0198 26.5464L42.0702 31.8992Z" stroke="white" stroke-width="1.50914"/>
<line x1="9.02459" y1="21.6531" x2="16.8737" y2="21.6531" stroke="white" stroke-width="1.50914" stroke-linecap="round"/>
<line x1="20.9821" y1="21.757" x2="28.8313" y2="21.757" stroke="white" stroke-width="1.50914" stroke-linecap="round"/>
</svg>
